<?xml version="1.0" standalone="no"?>
<!DOCTYPE svg PUBLIC "-//W3C//DTD SVG 20010904//EN"
 "http://www.w3.org/TR/2001/REC-SVG-20010904/DTD/svg10.dtd">
<svg version="1.0" xmlns="http://www.w3.org/2000/svg"
 width="2048.000000pt" height="1189.000000pt" viewBox="0 0 2048.000000 1189.000000"
 preserveAspectRatio="xMidYMid meet">

<g transform="translate(0.000000,1189.000000) scale(0.100000,-0.100000)"
fill="#000000" stroke="none">
<path d="M7845 9911 c-76 -30 -136 -80 -178 -147 -34 -55 -48 -110 -48 -196 0
-59 5 -81 30 -133 35 -71 94 -133 157 -165 42 -22 44 -25 44 -67 l0 -43 -100
0 c-86 0 -107 -3 -152 -25 l-52 -25 -1840 0 c-1830 0 -1841 0 -1874 -20 -21
-13 -41 -38 -53 -66 -20 -44 -20 -49 -4 -212 8 -92 22 -239 30 -327 8 -88 28
-304 44 -480 17 -176 49 -520 71 -765 23 -245 59 -638 80 -875 22 -236 44
-475 50 -530 5 -55 19 -202 30 -326 11 -124 25 -273 30 -330 6 -57 21 -225 35
-374 29 -315 113 -1233 149 -1615 17 -181 30 -275 41 -297 19 -38 77 -91 108
-98 12 -3 1687 -4 3722 -3 l3700 3 20 60 c11 33 23 65 26 70 4 6 10 28 14 50
4 22 13 51 21 65 19 35 74 203 74 227 0 10 4 23 8 29 5 5 21 45 37 89 42 121
114 264 151 301 31 30 150 94 177 94 11 0 140 31 144 34 2 1 -6 99 -17 217
-11 118 -22 239 -25 269 -16 178 -26 287 -35 380 -6 58 -15 155 -20 215 -40
453 -71 789 -100 1075 -5 52 -12 138 -15 190 -4 52 -11 129 -16 170 -5 41 -36
372 -69 735 -33 363 -64 707 -70 765 -30 313 -53 560 -70 770 -32 375 -38 403
-91 459 -51 54 50 51 -1835 51 -1473 0 -1750 2 -1763 14 -36 31 -63 36 -190
36 l-131 0 0 43 c0 40 3 43 51 72 66 39 112 91 149 167 35 72 41 166 14 245
-17 51 -75 139 -105 161 -10 7 -24 18 -31 25 -7 7 -39 23 -71 35 -72 27 -191
29 -252 3z m92 3 c-3 -3 -12 -4 -19 -1 -8 3 -5 6 6 6 11 1 17 -2 13 -5z m-96
-41 c13 -17 13 -17 -6 -3 -11 8 -22 16 -24 17 -2 2 0 3 6 3 6 0 17 -8 24 -17z
m-53 -44 c-7 -5 -14 -4 -16 1 -2 6 -9 7 -14 4 -6 -4 -8 -2 -5 4 4 5 16 8 28 5
16 -4 17 -8 7 -14z m-151 -256 c-3 -10 -5 -2 -5 17 0 19 2 27 5 18 2 -10 2
-26 0 -35z m368 38 c3 -5 1 -12 -5 -16 -5 -3 -10 1 -10 9 0 18 6 21 15 7z
m-348 -58 c-3 -10 -5 -4 -5 12 0 17 2 24 5 18 2 -7 2 -21 0 -30z m624 -90 c-8
-15 -10 -15 -11 -2 0 17 10 32 18 25 2 -3 -1 -13 -7 -23z m-590 -56 c-10 -9
-11 -8 -5 6 3 10 9 15 12 12 3 -3 0 -11 -7 -18z m524 -51 c-27 -35 -44 -49
-28 -23 17 27 48 65 52 62 1 -2 -9 -20 -24 -39z m-450 -15 c3 -5 2 -12 -3 -15
-5 -3 -9 1 -9 9 0 17 3 19 12 6z m62 -47 c-3 -3 -12 -4 -19 -1 -8 3 -5 6 6 6
11 1 17 -2 13 -5z m166 -61 c-13 -2 -35 -2 -50 0 -16 2 -5 4 22 4 28 0 40 -2
28 -4z m-403 -133 c-8 -5 -19 -10 -25 -10 -5 0 -3 5 5 10 8 5 20 10 25 10 6 0
3 -5 -5 -10z m-562 -217 c-10 -2 -26 -2 -35 0 -10 3 -2 5 17 5 19 0 27 -2 18
-5z m765 0 c-7 -2 -19 -2 -25 0 -7 3 -2 5 12 5 14 0 19 -2 13 -5z m150 0 c-13
-2 -35 -2 -50 0 -16 2 -5 4 22 4 28 0 40 -2 28 -4z m225 0 c-21 -2 -55 -2 -75
0 -21 2 -4 4 37 4 41 0 58 -2 38 -4z m185 0 c-23 -2 -64 -2 -90 0 -26 2 -7 3
42 3 50 0 71 -1 48 -3z m210 0 c-13 -2 -33 -2 -45 0 -13 2 -3 4 22 4 25 0 35
-2 23 -4z m-4292 -196 c-10 -9 -11 -8 -5 6 3 10 9 15 12 12 3 -3 0 -11 -7 -18z
m3084 -119 c-3 -24 -10 -54 -15 -68 -13 -35 -32 -137 -34 -182 -1 -26 -6 -38
-16 -38 -13 0 -13 -1 0 -10 18 -12 234 -12 270 0 14 4 19 8 13 9 -15 1 -18 51
-3 51 6 0 10 13 10 29 0 41 22 131 32 131 4 0 8 13 8 29 0 16 3 43 6 60 l7 31
448 0 c437 0 449 -1 449 -19 0 -11 -4 -31 -9 -44 -6 -14 -17 -69 -26 -123 -10
-55 -22 -105 -28 -113 -19 -22 -16 -41 6 -46 12 -3 734 -4 1604 -3 l1583 3 5
-40 c3 -22 14 -146 25 -275 11 -129 24 -289 30 -355 6 -66 12 -140 15 -165 3
-25 14 -153 25 -285 11 -132 31 -361 45 -510 13 -148 25 -300 27 -338 l3 -68
-1754 1 c-965 0 -1757 3 -1760 6 -3 3 -13 94 -23 202 -40 468 -60 690 -78 892
-11 118 -31 352 -45 520 -35 427 -34 420 -52 420 -16 0 -15 -49 8 -270 5 -52
18 -203 29 -335 11 -132 27 -316 35 -410 8 -93 24 -278 35 -410 12 -132 27
-312 35 -399 8 -88 15 -172 15 -188 l0 -28 -632 2 -633 3 -7 70 c-16 151 -67
446 -97 563 l-19 73 32 13 c18 7 93 33 167 56 177 56 359 127 383 150 25 24
23 69 -9 175 -40 133 -113 345 -155 454 -34 88 -40 96 -70 104 -49 12 -97 0
-116 -29 -15 -23 -15 -31 0 -112 15 -74 76 -331 92 -384 4 -13 -5 -20 -38 -28
-24 -6 -92 -26 -153 -44 -249 -75 -467 -126 -534 -126 -22 0 -23 -2 -9 -17 8
-10 18 -26 21 -35 3 -9 24 -29 46 -43 50 -31 79 -76 115 -180 62 -181 100
-331 131 -525 25 -156 41 -140 -144 -140 l-158 0 -12 78 c-38 240 -96 411
-211 617 l-33 60 44 -40 c24 -22 71 -65 104 -97 l60 -57 38 35 c20 19 37 38
37 43 0 5 5 11 12 13 12 4 -55 48 -74 48 -20 0 -122 54 -163 86 -35 27 -42 40
-53 93 -7 33 -16 61 -19 61 -4 0 -16 -8 -27 -18 -12 -10 -67 -28 -125 -41
-126 -28 -199 -58 -240 -101 -47 -49 -48 -54 -112 -525 -16 -121 -32 -228 -35
-237 -5 -17 -35 -18 -453 -18 -246 0 -450 -3 -454 -6 -28 -28 26 -29 1466 -27
804 2 1593 0 1754 -3 l291 -6 6 -77 c4 -42 20 -229 37 -416 16 -187 34 -392
39 -455 9 -106 66 -762 90 -1030 5 -63 10 -118 10 -122 0 -5 -792 -8 -1759 -8
l-1759 0 -6 58 c-4 31 -15 161 -26 287 -11 127 -31 361 -45 520 -14 160 -36
418 -50 575 -14 157 -32 357 -40 445 -8 88 -17 189 -20 225 -2 36 -11 139 -20
230 -8 91 -22 248 -30 350 -8 102 -24 282 -35 400 -11 118 -29 321 -40 450
-11 129 -26 307 -35 395 -8 88 -15 180 -15 205 l0 45 1097 -3 c604 -2 1112 0
1128 3 20 3 31 11 32 23 3 31 43 216 57 264 8 25 12 49 9 52 -4 3 96 6 221 6
l228 0 -7 -42z m-3108 -50 c-3 -8 -6 -5 -6 6 -1 11 2 17 5 13 3 -3 4 -12 1
-19z m591 -24 c26 -30 28 -64 5 -93 -14 -16 -32 -22 -73 -25 -30 -2 -49 -1
-42 1 10 4 10 9 -2 22 -9 10 -19 31 -22 48 -5 26 -1 37 21 58 21 22 32 26 58
21 18 -3 42 -17 55 -32z m243 7 c34 -34 37 -69 10 -102 -35 -44 -131 -20 -131
33 0 10 -4 18 -9 18 -14 0 17 58 37 70 30 17 63 11 93 -19z m253 -1 c24 -23
25 -85 3 -107 -8 -8 -31 -15 -52 -16 -76 -2 -111 88 -53 136 27 22 73 16 102
-13z m-747 -67 c-3 -10 -5 -4 -5 12 0 17 2 24 5 18 2 -7 2 -21 0 -30z m-330
-55 c-3 -7 -5 -2 -5 12 0 14 2 19 5 13 2 -7 2 -19 0 -25z m7370 -94 c-3 -3
-12 -4 -19 -1 -8 3 -5 6 6 6 11 1 17 -2 13 -5z m-7300 -626 c-3 -7 -5 -2 -5
12 0 14 2 19 5 13 2 -7 2 -19 0 -25z m10 -160 c-3 -7 -5 -2 -5 12 0 14 2 19 5
13 2 -7 2 -19 0 -25z m7710 -40 c-3 -7 -5 -2 -5 12 0 14 2 19 5 13 2 -7 2 -19
0 -25z m150 -120 c-3 -7 -5 -2 -5 12 0 14 2 19 5 13 2 -7 2 -19 0 -25z m-8050
-40 c-3 -7 -5 -2 -5 12 0 14 2 19 5 13 2 -7 2 -19 0 -25z m220 -125 c-3 -10
-5 -4 -5 12 0 17 2 24 5 18 2 -7 2 -21 0 -30z m10 -105 c-3 -7 -5 -2 -5 12 0
14 2 19 5 13 2 -7 2 -19 0 -25z m1863 -68 c0 -5 -2 -10 -4 -10 -3 0 -8 5 -11
10 -3 6 -1 10 4 10 6 0 11 -4 11 -10z m-202 -717 l21 -48 -36 -3 c-19 -2 -37
-1 -39 1 -7 6 19 97 27 97 3 0 16 -21 27 -47z m-1581 -125 c-2 -13 -4 -5 -4
17 -1 22 1 32 4 23 2 -10 2 -28 0 -40z m7387 10 c3 -13 7 -54 10 -93 6 -73 36
-414 86 -985 16 -184 41 -468 55 -630 14 -162 28 -314 31 -337 l6 -43 -675 0
-675 0 -6 118 c-4 64 -8 128 -9 142 -1 14 -10 -24 -20 -85 -10 -60 -23 -122
-29 -137 l-10 -28 -150 0 -149 0 6 38 c4 20 9 44 12 52 7 18 8 24 22 218 6 85
11 187 11 227 0 41 4 85 10 99 13 35 73 94 112 110 36 15 27 24 -34 32 l-43 6
-54 -90 c-29 -50 -66 -102 -81 -117 l-27 -26 -21 36 c-37 61 -63 63 -185 10
l-39 -16 -50 50 c-56 56 -58 57 -58 37 0 -7 -10 -26 -22 -42 l-23 -29 -5 70
c-3 39 -2 77 2 86 7 15 3 16 -34 7 -49 -11 -89 -38 -105 -70 -7 -13 -16 -131
-22 -278 -10 -228 -21 -349 -37 -402 -5 -17 -41 -18 -575 -18 -538 0 -569 1
-569 18 0 9 -14 175 -30 367 -74 852 -101 1168 -125 1430 -14 154 -25 283 -25
288 0 4 792 7 1760 7 l1760 0 4 -22z m-7347 -420 c-2 -13 -4 -3 -4 22 0 25 2
35 4 23 2 -13 2 -33 0 -45z m7870 -295 c-3 -10 -5 -4 -5 12 0 17 2 24 5 18 2
-7 2 -21 0 -30z m-7790 -595 c-3 -7 -5 -2 -5 12 0 14 2 19 5 13 2 -7 2 -19 0
-25z m20 -240 c-3 -8 -6 -5 -6 6 -1 11 2 17 5 13 3 -3 4 -12 1 -19z m63 -558
c0 -5 -4 -10 -10 -10 -5 0 -10 5 -10 10 0 6 5 10 10 10 6 0 10 -4 10 -10z m-3
-82 c-3 -7 -5 -2 -5 12 0 14 2 19 5 13 2 -7 2 -19 0 -25z m3850 -74 c-3 -3
-12 -4 -19 -1 -8 3 -5 6 6 6 11 1 17 -2 13 -5z m-467 -128 c0 -2 -9 -2 -20 1
-11 3 -20 9 -20 15 0 5 9 4 20 -2 11 -6 20 -12 20 -14z m567 -27 c35 -13 79
-55 98 -93 25 -50 21 -56 -40 -56 l-55 0 0 44 c0 37 -4 45 -22 50 -42 11 -134
6 -153 -8 -17 -12 -18 -17 -7 -40 19 -42 15 -46 -41 -46 -47 0 -55 3 -65 25
-9 20 -9 23 3 18 10 -3 15 2 15 16 0 25 61 88 92 94 46 9 147 7 175 -4z m343
1 c0 -5 -5 -10 -11 -10 -5 0 -7 5 -4 10 3 6 8 10 11 10 2 0 4 -4 4 -10z m145
-27 c14 -33 31 -27 27 8 -1 3 10 4 23 1 33 -6 31 -19 -7 -61 -18 -18 -28 -31
-21 -27 22 12 27 -41 7 -72 -10 -15 -18 -30 -16 -34 1 -4 -5 -5 -13 -2 -11 5
-13 2 -9 -10 4 -10 16 -15 32 -14 14 2 27 -3 29 -9 4 -10 -15 -13 -72 -13 -57
0 -76 3 -72 13 2 6 16 12 30 12 30 -1 37 19 10 29 -9 4 -25 -2 -38 -14 -12
-11 -27 -20 -33 -20 -18 0 -14 25 8 45 14 12 17 25 13 46 -3 16 -1 35 6 42 6
8 10 29 9 49 -2 47 8 60 45 56 22 -2 35 -10 42 -25z m-1005 -9 c0 -9 -6 -22
-14 -28 -10 -8 -12 -25 -7 -70 8 -67 4 -71 -64 -64 -34 4 -48 1 -60 -12 -9
-10 -13 -20 -8 -22 4 -3 3 -4 -3 -2 -6 1 -17 -3 -23 -9 -8 -8 -14 -8 -22 0
-12 12 4 53 21 53 6 0 10 10 10 23 l-1 22 -18 -22 c-24 -29 -36 -18 -48 45
-11 57 -5 64 35 36 21 -14 22 -14 22 6 0 20 5 21 55 19 46 -2 60 1 78 19 25
26 47 29 47 6z m-137 -11 c-7 -2 -19 -2 -25 0 -7 3 -2 5 12 5 14 0 19 -2 13
-5z m1207 -43 c0 -5 -5 -10 -11 -10 -5 0 -7 5 -4 10 3 6 8 10 11 10 2 0 4 -4
4 -10z m7 -106 c-3 -3 -12 -4 -19 -1 -8 3 -5 6 6 6 11 1 17 -2 13 -5z m-1329
-29 c-3 -3 -9 2 -12 12 -6 14 -5 15 5 6 7 -7 10 -15 7 -18z m57 -53 c-3 -3
-11 0 -18 7 -9 10 -8 11 6 5 10 -3 15 -9 12 -12z m750 8 c-3 -5 -16 -10 -28
-9 -20 1 -20 2 3 9 14 4 26 8 28 9 2 1 0 -3 -3 -9z m525 -4 c0 -3 -4 -8 -10
-11 -5 -3 -10 -1 -10 4 0 6 5 11 10 11 6 0 10 -2 10 -4z m-3837 -443 c-40 -2
-106 -2 -145 0 -40 1 -8 3 72 3 80 0 112 -2 73 -3z m335 0 c-43 -2 -113 -2
-155 0 -43 1 -8 3 77 3 85 0 120 -2 78 -3z"/>
<path d="M8248 8273 c23 -2 59 -2 80 0 20 2 1 4 -43 4 -44 0 -61 -2 -37 -4z"/>
<path d="M9790 8176 c-129 -47 -158 -63 -193 -112 -54 -74 -72 -135 -71 -239
1 -72 6 -103 27 -158 37 -92 36 -140 -3 -179 -16 -16 -30 -31 -30 -34 0 -2 15
-4 33 -4 37 0 143 49 140 65 -2 6 -12 37 -24 70 -14 39 -23 96 -27 162 l-5
103 32 6 c39 8 41 24 2 24 l-29 0 18 47 c10 26 22 49 28 51 17 5 231 -120 282
-165 85 -77 129 -224 100 -342 -13 -55 -8 -75 13 -49 6 8 39 35 72 60 108 81
148 160 149 288 0 165 -46 265 -158 347 -121 87 -228 105 -356 59z"/>
<path d="M11160 8153 c-27 -3 -52 -12 -63 -24 -10 -10 -27 -19 -37 -19 -23 0
-24 -18 -13 -132 l6 -68 146 0 146 0 -9 100 c-9 98 -9 100 -35 101 -14 1 -30
0 -36 -1 -5 -1 -7 2 -2 6 10 11 -23 44 -42 42 -9 -1 -36 -3 -61 -5z m3 -20
c-7 -2 -21 -2 -30 0 -10 3 -4 5 12 5 17 0 24 -2 18 -5z m77 -28 c7 -9 22 -13
34 -10 12 3 16 2 9 -1 -13 -6 -8 -54 9 -91 9 -19 6 -26 -23 -52 -41 -38 -88
-41 -136 -8 -29 19 -39 41 -34 71 1 4 -5 19 -14 32 -14 23 -14 25 2 31 10 4
27 15 37 25 25 23 98 24 116 3z"/>
<path d="M11146 8081 c-4 -5 -3 -16 0 -25 4 -10 -1 -19 -15 -23 l-20 -8 20
-33 c24 -37 60 -49 97 -33 21 10 23 14 11 22 -12 8 -11 11 4 23 36 27 -10 86
-67 86 -14 0 -27 -4 -30 -9z m79 -21 c3 -6 -1 -7 -9 -4 -18 7 -21 14 -7 14 6
0 13 -4 16 -10z"/>
<path d="M4750 8062 c-39 -39 -47 -90 -24 -139 59 -120 227 -108 241 18 10 87
-48 149 -140 149 -40 0 -54 -5 -77 -28z"/>
<path d="M8344 8079 c-47 -23 -70 -114 -41 -166 24 -43 77 -73 128 -73 41 0
51 4 78 35 24 28 31 45 31 79 0 49 -31 103 -70 123 -30 15 -97 16 -126 2z"/>
<path d="M5084 7958 c3 -13 6 -26 6 -30 0 -5 113 -8 251 -8 225 0 251 2 245
16 -3 9 -6 22 -6 30 0 12 -41 14 -251 14 l-251 0 6 -22z"/>
<path d="M8650 7950 l0 -30 250 0 250 0 0 30 0 30 -250 0 -250 0 0 -30z"/>
<path d="M9780 7880 c0 -5 11 -10 25 -10 14 0 36 -7 49 -16 15 -9 26 -11 30
-5 4 6 -7 17 -23 26 -34 17 -81 20 -81 5z"/>
<path d="M9676 7782 c10 -39 14 -44 29 -32 17 14 8 47 -16 53 -16 4 -18 1 -13
-21z"/>
<path d="M9829 7783 c9 -34 41 -44 41 -14 0 11 -9 25 -19 31 -28 15 -30 13
-22 -17z"/>
<path d="M9717 7700 c-22 -44 -21 -50 8 -50 19 0 25 5 24 23 0 12 -4 31 -8 41
-7 18 -9 16 -24 -14z"/>
<path d="M6512 7629 c1 -13 8 -23 13 -21 15 3 12 35 -3 40 -9 3 -13 -3 -10
-19z"/>
<path d="M9900 7638 c0 -17 -81 -58 -112 -58 l-22 0 22 -22 c22 -22 24 -22 37
-5 7 10 15 14 16 8 3 -6 16 -4 35 5 23 11 33 24 36 45 3 17 1 32 -4 35 -4 3
-8 -1 -8 -8z"/>
<path d="M6357 7624 c-3 -4 -2 -16 4 -26 13 -24 35 -9 26 16 -7 17 -19 21 -30
10z"/>
<path d="M6500 7576 c0 -18 23 -86 30 -86 4 0 13 7 20 15 10 12 9 16 -4 21 -9
4 -23 18 -31 33 -8 14 -14 22 -15 17z"/>
<path d="M9612 7288 c30 -108 53 -160 72 -168 11 -4 59 -26 106 -49 81 -38 83
-40 48 -41 -67 0 -100 -64 -62 -118 19 -28 47 -28 91 0 35 21 35 21 29 1 -16
-51 -34 -169 -27 -181 5 -8 13 16 21 60 19 99 37 157 43 138 3 -8 13 -51 22
-95 16 -74 28 -105 39 -94 2 2 -1 27 -8 54 -7 28 -16 67 -20 87 l-7 37 37 -34
c40 -38 82 -46 108 -19 20 20 21 73 1 101 -17 25 -76 47 -102 39 -10 -3 -24
-2 -31 3 -9 5 6 10 40 14 29 4 96 11 148 17 99 11 160 26 160 39 0 4 41 27 90
52 90 43 108 59 70 59 -22 0 -166 -75 -176 -91 -10 -17 -26 -9 -21 11 3 11 1
20 -5 20 -6 0 -8 -11 -6 -25 3 -14 2 -25 -1 -25 -3 0 -53 -7 -111 -15 -58 -8
-121 -15 -140 -15 l-34 0 47 48 c53 54 61 77 21 62 -53 -21 -174 -6 -174 22 0
4 -6 8 -14 8 -8 0 -16 6 -18 13 -3 6 -5 -3 -5 -21 0 -18 3 -28 7 -22 3 5 14
-9 24 -33 9 -23 22 -51 28 -61 8 -16 7 -18 -7 -12 -9 3 -22 6 -28 6 -7 0 -6 5
3 11 13 9 12 10 -2 5 -10 -3 -54 12 -100 36 -96 47 -89 42 -92 60 -9 50 -42
128 -54 128 -7 0 -12 -6 -10 -12z m305 -292 c8 -8 -63 -72 -90 -82 -41 -14
-62 42 -30 79 15 15 27 18 66 14 26 -2 51 -7 54 -11z m139 -21 c22 -9 36 -23
40 -41 13 -52 -31 -81 -71 -46 -21 18 -75 85 -75 94 0 11 74 6 106 -7z"/>
<path d="M9661 7284 c0 -11 3 -14 6 -6 3 7 2 16 -1 19 -3 4 -6 -2 -5 -13z"/>
<path d="M9773 7293 c9 -2 23 -2 30 0 6 3 -1 5 -18 5 -16 0 -22 -2 -12 -5z"/>
<path d="M10214 7269 c-3 -5 6 -9 20 -9 31 0 34 6 6 13 -11 3 -23 1 -26 -4z"/>
<path d="M10278 7253 c7 -3 16 -2 19 1 4 3 -2 6 -13 5 -11 0 -14 -3 -6 -6z"/>
<path d="M10350 7229 c0 -5 8 -9 18 -9 10 0 24 -6 31 -12 11 -11 13 -10 9 1
-5 17 -58 35 -58 20z"/>
<path d="M9525 7220 c3 -5 8 -10 11 -10 2 0 4 5 4 10 0 6 -5 10 -11 10 -5 0
-7 -4 -4 -10z"/>
<path d="M9509 7208 c-5 -9 -5 -48 -1 -43 6 6 11 45 5 45 -2 0 -4 -1 -4 -2z"/>
<path d="M10435 7200 c3 -5 8 -10 11 -10 2 0 4 5 4 10 0 6 -5 10 -11 10 -5 0
-7 -4 -4 -10z"/>
<path d="M9544 7134 c-4 -27 -11 -43 -18 -41 -7 3 -10 -10 -7 -39 2 -28 -1
-44 -8 -44 -14 0 -14 -216 1 -285 5 -27 11 -73 11 -101 2 -47 3 -49 17 -30 38
52 38 59 19 147 -26 122 -24 227 7 402 4 24 3 37 -4 37 -6 0 -14 -21 -18 -46z"/>
<path d="M9736 7146 c10 -8 21 -12 24 -10 5 6 -21 24 -34 24 -6 0 -1 -6 10
-14z"/>
<path d="M9405 7020 c-3 -5 -1 -10 4 -10 6 0 11 5 11 10 0 6 -2 10 -4 10 -3 0
-8 -4 -11 -10z"/>
<path d="M6606 6955 c-9 -26 -7 -32 5 -12 6 10 9 21 6 23 -2 3 -7 -2 -11 -11z"/>
<path d="M9048 6963 c6 -2 18 -2 25 0 6 3 1 5 -13 5 -14 0 -19 -2 -12 -5z"/>
<path d="M9141 6913 c7 -12 15 -20 18 -17 3 2 -3 12 -13 22 -17 16 -18 16 -5
-5z"/>
<path d="M9331 6827 c-19 -32 -20 -39 -7 -27 17 13 40 59 34 66 -2 1 -14 -16
-27 -39z"/>
<path d="M8941 6814 c0 -11 3 -14 6 -6 3 7 2 16 -1 19 -3 4 -6 -2 -5 -13z"/>
<path d="M9200 6817 c0 -15 37 -53 44 -46 2 2 -7 17 -20 32 -14 16 -24 22 -24
14z"/>
<path d="M9339 6783 c-13 -16 -12 -17 4 -4 9 7 17 15 17 17 0 8 -8 3 -21 -13z"/>
<path d="M9278 6773 c7 -3 16 -2 19 1 4 3 -2 6 -13 5 -11 0 -14 -3 -6 -6z"/>
<path d="M9006 6660 c20 -43 24 -47 24 -29 0 8 -10 25 -21 39 l-20 25 17 -35z"/>
<path d="M9490 6550 c0 -5 7 -7 15 -4 8 4 15 8 15 10 0 2 -7 4 -15 4 -8 0 -15
-4 -15 -10z"/>
<path d="M9100 6526 c0 -2 8 -10 18 -17 15 -13 16 -12 3 4 -13 16 -21 21 -21
13z"/>
<path d="M10366 6508 c-3 -13 -5 -39 -5 -58 1 -28 3 -25 10 19 9 55 6 80 -5
39z"/>
<path d="M9430 6479 c-22 -18 -22 -19 -3 -10 12 6 25 16 28 21 9 15 3 12 -25
-11z"/>
<path d="M9164 6478 c10 -6 22 -6 26 -2 5 5 -3 10 -18 11 -22 1 -24 0 -8 -9z"/>
<path d="M9228 6443 c7 -3 16 -2 19 1 4 3 -2 6 -13 5 -11 0 -14 -3 -6 -6z"/>
<path d="M9358 6443 c7 -3 16 -2 19 1 4 3 -2 6 -13 5 -11 0 -14 -3 -6 -6z"/>
<path d="M9278 6433 c12 -2 30 -2 40 0 9 3 -1 5 -23 4 -22 0 -30 -2 -17 -4z"/>
<path d="M4975 6012 c-64 -40 -78 -93 -43 -161 64 -124 238 -94 238 41 0 96
-118 169 -195 120z"/>
<path d="M5282 5873 l3 -28 248 -3 247 -2 0 30 0 30 -251 0 -250 0 3 -27z"/>
<path d="M6470 5877 c-104 -32 -147 -55 -175 -92 -30 -38 -32 -52 -21 -132 8
-61 26 -79 26 -25 0 44 16 11 34 -73 22 -95 52 -169 66 -160 5 3 7 0 5 -7 -3
-8 7 -21 24 -31 34 -20 40 -44 42 -183 1 -74 -3 -108 -14 -131 -9 -17 -13 -34
-9 -38 4 -5 2 -5 -5 -1 -17 10 -26 -29 -12 -53 13 -19 57 -46 72 -43 4 1 7 -2
7 -7 0 -12 96 -57 151 -71 79 -20 133 25 115 95 -4 14 -12 25 -19 25 -33 0
-87 92 -87 148 0 35 16 52 49 52 72 0 150 74 171 162 12 56 13 154 0 198 -6
21 -6 38 0 44 6 6 2 19 -9 35 -35 51 -50 92 -44 121 8 45 -30 114 -85 152 -41
28 -55 32 -127 35 -62 2 -97 -2 -155 -20z m122 -164 c-26 -3 -32 -8 -27 -21 3
-9 3 -14 0 -10 -4 3 -16 -3 -27 -14 -31 -31 -32 -14 -1 21 20 23 35 31 58 29
l30 -1 -33 -4z m109 -31 c-7 -2 -18 1 -23 6 -8 8 -4 9 13 5 13 -4 18 -8 10
-11z m-41 -72 c-8 -5 -24 -9 -35 -9 l-20 0 20 9 c11 5 27 9 35 9 13 1 13 0 0
-9z m-33 -66 c-3 -3 -12 -4 -19 -1 -8 3 -5 6 6 6 11 1 17 -2 13 -5z m-104 -34
c-3 -11 -7 -20 -9 -20 -2 0 -4 9 -4 20 0 11 4 20 9 20 5 0 7 -9 4 -20z m-133
-37 c0 -51 -6 -52 -20 -4 -5 19 -5 29 1 26 5 -4 9 1 9 9 0 9 2 16 5 16 3 0 5
-21 5 -47z m50 27 c0 -5 -2 -10 -4 -10 -3 0 -8 5 -11 10 -3 6 -1 10 4 10 6 0
11 -4 11 -10z m220 -31 c0 -5 -4 -9 -10 -9 -5 0 -10 7 -10 16 0 8 5 12 10 9 6
-3 10 -10 10 -16z m-35 -89 c-9 -10 -15 -26 -11 -35 3 -9 2 -13 -4 -10 -6 3
-10 11 -10 17 0 12 29 48 38 48 3 0 -3 -9 -13 -20z m-175 0 c13 -8 13 -10 -2
-10 -9 0 -20 5 -23 10 -8 13 5 13 25 0z m127 -32 c-3 -8 -6 -5 -6 6 -1 11 2
17 5 13 3 -3 4 -12 1 -19z m206 -18 c30 -9 36 -14 27 -25 -11 -13 -23 -12 -90
7 -63 17 -90 30 -90 43 0 13 60 3 153 -25z m-163 -42 c0 -16 -3 -19 -11 -11
-6 6 -8 16 -5 22 11 17 16 13 16 -11z m110 -7 c0 -4 -11 -6 -25 -3 -14 2 -25
6 -25 8 0 2 11 4 25 4 14 0 25 -4 25 -9z m40 -17 c0 -2 -7 -4 -15 -4 -8 0 -15
4 -15 10 0 5 7 7 15 4 8 -4 15 -8 15 -10z"/>
<path d="M7599 5287 c-60 -40 -70 -87 -48 -214 14 -78 39 -107 84 -99 63 12
95 80 95 202 l0 71 -44 31 c-24 18 -46 32 -49 32 -2 0 -19 -10 -38 -23z m51
-1 c0 -11 -19 -15 -25 -6 -3 5 1 10 9 10 9 0 16 -2 16 -4z m34 -22 c3 -8 2
-12 -4 -9 -6 3 -10 10 -10 16 0 14 7 11 14 -7z m-96 -79 c0 -16 -2 -15 -8 5
-4 14 -8 34 -8 45 0 16 2 15 8 -5 4 -14 8 -34 8 -45z m119 -17 c-2 -18 -4 -6
-4 27 0 33 2 48 4 33 2 -15 2 -42 0 -60z m-150 0 c-3 -8 -6 -5 -6 6 -1 11 2
17 5 13 3 -3 4 -12 1 -19z m10 -75 c-3 -10 -5 -4 -5 12 0 17 2 24 5 18 2 -7 2
-21 0 -30z m133 -15 c6 -18 5 -30 -3 -36 -9 -8 -12 3 -13 41 -1 29 0 45 3 37
2 -8 8 -27 13 -42z m-123 -55 c-3 -10 -5 -2 -5 17 0 19 2 27 5 18 2 -10 2 -26
0 -35z m20 -10 c-3 -10 -5 -4 -5 12 0 17 2 24 5 18 2 -7 2 -21 0 -30z"/>
<path d="M8538 5983 c-60 -37 -65 -145 -10 -195 61 -53 132 -56 182 -6 25 24
30 38 30 76 0 84 -56 142 -137 142 -21 0 -50 -8 -65 -17z"/>
<path d="M8850 5860 c0 -16 3 -30 8 -30 4 0 116 -1 250 -3 l242 -2 0 33 0 32
-250 0 -250 0 0 -30z"/>
<path d="M10090 5528 c-19 -5 -37 -12 -39 -14 -2 -2 13 -19 34 -37 37 -32 37
-33 39 -112 1 -67 4 -80 19 -83 13 -3 17 3 17 25 0 29 21 68 48 91 24 19 56
14 80 -11 44 -47 16 -124 -55 -154 -44 -18 -42 -47 3 -51 27 -3 33 1 42 27 6
17 17 31 25 31 19 0 38 23 40 50 1 12 9 26 19 31 32 17 41 46 24 80 -9 18 -13
43 -9 64 4 26 1 41 -12 55 -16 18 -31 20 -129 19 -61 0 -127 -5 -146 -11z"/>
<path d="M9785 5490 c-27 -30 -11 -35 20 -6 19 17 23 26 13 26 -8 0 -23 -9
-33 -20z"/>
<path d="M10000 5480 c26 -20 40 -25 40 -14 0 11 -34 33 -50 33 -10 1 -6 -6
10 -19z"/>
<path d="M9964 5426 c-6 -17 2 -36 17 -36 12 0 12 37 -1 45 -6 3 -13 -1 -16
-9z"/>
<path d="M9820 5410 c0 -19 11 -26 23 -14 8 8 -3 34 -14 34 -5 0 -9 -9 -9 -20z"/>
<path d="M10021 5266 c-7 -8 -22 -17 -34 -19 -21 -4 -21 -4 -1 -6 22 -1 63 24
53 33 -3 4 -12 0 -18 -8z"/>
<path d="M10570 4820 c0 -5 5 -10 11 -10 5 0 7 5 4 10 -3 6 -8 10 -11 10 -2 0
-4 -4 -4 -10z"/>
<path d="M10461 4804 c-7 -8 -11 -17 -9 -20 3 -2 13 5 23 16 10 11 14 20 9 20
-5 -1 -15 -8 -23 -16z"/>
<path d="M10641 4724 c0 -11 3 -14 6 -6 3 7 2 16 -1 19 -3 4 -6 -2 -5 -13z"/>
<path d="M10653 4610 c0 -25 2 -35 4 -22 2 12 2 32 0 45 -2 12 -4 2 -4 -23z"/>
<path d="M10654 4455 c0 -49 1 -71 3 -48 2 23 2 64 0 90 -2 26 -3 8 -3 -42z"/>
<path d="M9058 3563 c7 -3 16 -2 19 1 4 3 -2 6 -13 5 -11 0 -14 -3 -6 -6z"/>
<path d="M13472 7667 c-9 -10 -9 -18 1 -31 17 -23 49 -11 45 18 -4 25 -30 32
-46 13z"/>
<path d="M13634 7665 c-8 -21 2 -45 19 -45 8 0 20 7 27 15 10 12 10 18 0 30
-7 8 -19 15 -27 15 -7 0 -16 -7 -19 -15z"/>
<path d="M13797 7673 c-13 -12 -7 -41 10 -47 21 -9 46 16 37 37 -6 17 -35 23
-47 10z"/>
<path d="M13941 7019 c-51 -16 -76 -32 -121 -77 -84 -85 -107 -188 -76 -342
10 -47 14 -96 10 -114 -8 -37 -61 -122 -98 -155 -14 -14 -26 -28 -26 -33 0
-13 53 -9 80 7 14 8 28 14 31 15 3 0 -9 -39 -27 -87 -40 -105 -43 -173 -13
-283 11 -41 22 -120 25 -175 l6 -100 -50 -53 c-52 -55 -144 -186 -181 -260
-12 -24 -30 -51 -39 -60 -18 -19 -52 -68 -52 -76 0 -3 50 -29 111 -58 l111
-52 -6 -106 c-3 -58 -10 -206 -16 -330 -6 -124 -18 -279 -26 -345 -8 -67 -14
-135 -14 -153 0 -24 -5 -32 -17 -32 -14 0 -15 -2 -5 -9 11 -7 11 -23 1 -90
-12 -79 -13 -81 -41 -81 -21 0 -28 5 -28 20 0 11 -4 20 -10 20 -5 0 -16 15
-24 33 -7 17 -23 42 -35 54 -11 12 -21 29 -21 38 0 8 -4 15 -10 15 -5 0 -10 6
-10 13 0 8 -9 24 -20 37 -11 13 -20 28 -20 35 0 6 -5 16 -12 23 -7 7 -26 37
-43 67 -149 266 -189 335 -197 335 -9 0 39 -100 77 -160 12 -19 46 -80 75
-135 29 -55 58 -107 64 -115 7 -8 25 -42 41 -75 16 -33 41 -80 56 -105 15 -25
38 -65 52 -90 l25 -45 214 -2 c245 -2 453 -16 686 -44 l162 -20 119 25 c66 14
129 23 140 21 12 -2 21 -1 21 3 1 82 13 291 19 335 4 32 5 60 2 62 -4 2 -48
-3 -98 -10 -50 -8 -164 -19 -254 -25 -90 -6 -182 -16 -204 -21 -22 -6 -107
-14 -190 -19 -82 -5 -160 -12 -173 -16 -35 -10 -112 71 -112 118 0 39 49 145
81 174 40 36 116 24 310 -52 l86 -34 99 36 c55 20 189 67 299 105 193 67 219
81 221 119 0 8 4 31 8 50 6 27 -2 73 -28 184 -20 82 -36 152 -36 156 0 4 8 11
18 15 43 17 216 46 305 52 l99 6 -7 46 c-3 25 -12 51 -19 56 -6 6 -22 39 -35
75 -97 269 -263 470 -389 470 -17 0 -42 4 -55 9 -24 10 -25 11 -11 53 8 24 16
64 20 91 8 73 27 59 22 -18 -2 -36 -1 -65 3 -65 12 0 61 63 76 97 20 48 16
112 -8 153 -12 19 -52 65 -89 101 -81 79 -91 106 -83 228 7 107 0 148 -33 197
-21 31 -24 41 -15 61 15 33 14 97 -3 138 -20 48 -26 44 -20 -12 3 -27 2 -59
-3 -72 -9 -22 -11 -20 -27 30 -34 105 -118 182 -240 222 -45 14 -97 21 -201
23 -122 4 -148 1 -204 -17z m292 -286 c-5 -63 -2 -76 36 -164 22 -53 41 -104
41 -114 0 -13 5 -15 18 -9 9 4 33 9 53 12 30 3 40 -1 53 -19 28 -40 20 -74
-29 -129 -25 -28 -45 -57 -45 -65 0 -8 -5 -15 -11 -15 -6 0 -9 9 -6 19 6 25
-41 37 -51 12 -13 -30 -6 -126 11 -161 9 -19 21 -65 26 -103 5 -37 18 -84 28
-105 16 -33 23 -38 65 -42 57 -7 66 -14 46 -37 -43 -49 -113 -226 -140 -353
-6 -33 -15 -60 -18 -60 -4 0 -19 14 -36 31 -55 58 -120 75 -168 44 -20 -13
-31 -14 -68 -4 -58 16 -94 6 -136 -38 -42 -45 -52 -34 -52 52 0 67 39 193 84
269 19 33 38 51 72 66 26 11 53 20 60 20 35 0 61 86 50 164 l-7 46 -49 0
c-102 0 -204 62 -253 154 -19 36 -22 57 -22 161 0 106 4 131 30 213 l30 94 38
-5 c46 -6 47 15 1 23 -22 4 -26 8 -14 15 12 7 169 64 179 65 2 0 -4 -12 -14
-26 -9 -14 -15 -28 -12 -30 7 -8 112 32 159 59 24 14 46 25 49 26 4 1 4 -29 2
-66z m-393 -997 c-14 -14 -24 0 -16 21 6 15 8 15 16 3 6 -9 5 -19 0 -24z"/>
<path d="M14125 6640 c3 -5 12 -10 19 -10 7 0 22 -9 35 -21 12 -12 24 -19 27
-16 10 9 -8 35 -32 46 -31 14 -57 14 -49 1z"/>
<path d="M13840 6570 c0 -34 3 -41 18 -38 26 5 28 54 3 68 -20 10 -21 8 -21
-30z"/>
<path d="M14043 6534 c-1 -40 15 -54 33 -29 14 19 5 49 -19 58 -9 3 -13 -5
-14 -29z"/>
<path d="M13996 6269 c-11 -7 -38 -9 -65 -5 -32 4 -41 3 -31 -4 27 -18 130 -9
130 11 0 12 -11 11 -34 -2z"/>
<path d="M12709 5454 c18 -33 123 -425 117 -440 -6 -15 9 -20 18 -5 3 5 -3 38
-13 73 -10 34 -31 108 -45 163 -42 163 -61 218 -75 223 -9 3 -10 0 -2 -14z"/>
<path d="M12660 5435 c0 -8 7 -15 15 -15 8 0 15 7 15 15 0 8 -7 15 -15 15 -8
0 -15 -7 -15 -15z"/>
<path d="M12796 4970 c4 -14 12 -38 19 -55 10 -23 13 -25 14 -10 0 11 -9 36
-20 55 -15 26 -18 29 -13 10z"/>
<path d="M15995 4941 c-49 -4 -74 -8 -55 -9 l35 -2 -36 -30 c-45 -37 -75 -99
-83 -170 -3 -30 -26 -230 -51 -445 -26 -214 -49 -409 -51 -432 l-5 -42 -367
-3 c-424 -3 -417 -2 -521 -106 -31 -30 -60 -55 -64 -54 -5 2 -6 -2 -2 -8 3 -5
1 -19 -5 -31 -15 -27 -39 -187 -54 -354 l-11 -130 -70 -5 c-50 -4 -81 -13
-110 -30 -38 -24 -48 -25 -185 -24 -80 0 -203 8 -275 17 -201 25 -250 28 -415
29 -122 0 -156 3 -165 14 -7 10 -50 17 -152 25 -195 14 -186 17 -190 -56 -3
-64 -34 -287 -59 -420 -38 -202 -125 -499 -194 -665 -17 -41 -35 -87 -40 -102
l-9 -28 240 0 239 0 0 -253 c0 -297 -3 -287 96 -287 98 0 93 -13 96 280 l3
255 640 0 640 0 3 -255 c3 -292 -1 -280 92 -280 98 0 95 -10 97 277 2 136 3
250 3 253 0 3 172 4 382 2 l383 -3 3 -252 c3 -290 -2 -277 98 -277 98 0 94
-11 94 283 l0 252 50 1 c97 2 153 69 164 199 4 39 17 194 31 345 13 151 34
390 46 530 13 160 26 265 35 282 20 38 49 55 118 67 105 19 128 57 146 234 15
156 9 187 -43 232 -39 33 -44 35 -118 35 -43 0 -80 3 -82 8 -3 4 -1 34 3 67 5
33 32 254 61 492 52 429 52 432 35 478 -30 77 -67 94 -211 99 -66 2 -160 1
-210 -3z m-1528 -1897 c-3 -3 -12 -4 -19 -1 -8 3 -5 6 6 6 11 1 17 -2 13 -5z"/>
<path d="M15293 4933 c9 -2 25 -2 35 0 9 3 1 5 -18 5 -19 0 -27 -2 -17 -5z"/>
<path d="M15271 4784 c0 -11 3 -14 6 -6 3 7 2 16 -1 19 -3 4 -6 -2 -5 -13z"/>
<path d="M13555 4540 c-3 -5 -1 -10 4 -10 6 0 11 5 11 10 0 6 -2 10 -4 10 -3
0 -8 -4 -11 -10z"/>
<path d="M15272 4530 c0 -14 2 -19 5 -12 2 6 2 18 0 25 -3 6 -5 1 -5 -13z"/>
<path d="M13485 4460 c-3 -5 -1 -10 4 -10 6 0 11 5 11 10 0 6 -2 10 -4 10 -3
0 -8 -4 -11 -10z"/>
<path d="M13476 4385 c-3 -9 -6 -26 -5 -38 1 -16 4 -12 10 12 10 34 6 55 -5
26z"/>
<path d="M15095 4380 c-19 -8 -19 -9 3 -9 12 -1 22 4 22 9 0 6 -1 10 -2 9 -2
0 -12 -4 -23 -9z"/>
<path d="M13466 4305 c-3 -8 -1 -15 4 -15 6 0 10 7 10 15 0 8 -2 15 -4 15 -2
0 -6 -7 -10 -15z"/>
<path d="M14858 4313 c6 -2 18 -2 25 0 6 3 1 5 -13 5 -14 0 -19 -2 -12 -5z"/>
<path d="M13462 4230 c0 -19 2 -27 5 -17 2 9 2 25 0 35 -3 9 -5 1 -5 -18z"/>
<path d="M13492 4190 c0 -14 2 -19 5 -12 2 6 2 18 0 25 -3 6 -5 1 -5 -13z"/>
<path d="M13451 4174 c0 -11 3 -14 6 -6 3 7 2 16 -1 19 -3 4 -6 -2 -5 -13z"/>
<path d="M13440 4138 c0 -4 16 -8 35 -8 19 0 35 2 35 4 0 2 -16 6 -35 8 -19 2
-35 0 -35 -4z"/>
<path d="M14708 3267 c-3 -19 -2 -25 4 -19 6 6 8 18 6 28 -3 14 -5 12 -10 -9z"/>
<path d="M14675 3201 c-8 -17 -12 -31 -8 -31 9 0 35 52 29 58 -3 2 -12 -10
-21 -27z"/>
<path d="M12440 2678 c-6 -18 -20 -51 -30 -73 -9 -22 -30 -71 -45 -110 -31
-78 -36 -90 -129 -295 -36 -80 -66 -157 -66 -173 0 -35 31 -96 61 -121 14 -12
44 -21 74 -24 l51 -4 23 203 c31 279 70 590 77 612 9 30 -3 18 -16 -15z"/>
<path d="M11536 1725 c-21 -33 -21 -74 2 -81 9 -4 55 -21 102 -40 47 -18 131
-49 188 -68 l103 -34 14 21 c7 12 17 34 20 48 6 24 2 27 -42 44 -26 10 -52 21
-58 25 -5 5 -26 13 -45 18 -19 6 -80 29 -134 51 -55 23 -107 41 -117 41 -9 0
-24 -11 -33 -25z m401 -187 c-3 -8 -6 -5 -6 6 -1 11 2 17 5 13 3 -3 4 -12 1
-19z"/>
<path d="M12290 1575 c-13 -16 -16 -72 -5 -83 3 -4 10 0 15 8 8 13 10 13 10
-1 0 -9 10 -19 23 -22 19 -5 126 -43 167 -60 72 -30 214 -76 219 -72 3 4 -1
11 -9 16 -12 9 -12 10 3 5 18 -6 21 -2 31 45 5 23 1 28 -27 39 -17 7 -45 19
-62 26 -16 7 -46 17 -65 23 -35 10 -171 59 -223 80 -39 15 -62 14 -77 -4z"/>
<path d="M11471 1504 c0 -11 3 -14 6 -6 3 7 2 16 -1 19 -3 4 -6 -2 -5 -13z"/>
<path d="M11435 1483 c5 -18 -3 -26 -62 -55 -65 -31 -73 -33 -183 -33 -63 -1
-121 -4 -127 -8 -17 -11 -16 -52 2 -86 17 -33 58 -52 170 -76 124 -27 178 -42
348 -103 121 -43 163 -53 175 -45 12 7 20 36 29 99 18 136 17 190 -4 199 -51
20 -299 95 -314 95 -10 0 -23 8 -29 18 -10 15 -10 14 -5 -5z"/>
<path d="M12190 1313 c0 -6 5 -15 11 -19 16 -9 -32 -48 -100 -81 -47 -23 -72
-28 -158 -31 -96 -4 -102 -5 -107 -27 -8 -32 7 -68 38 -92 25 -20 76 -30 261
-53 50 -6 159 -29 244 -51 85 -21 162 -39 172 -39 33 0 41 35 37 166 -2 95 -6
127 -17 134 -25 15 -297 74 -335 72 -11 -1 -25 7 -32 16 -8 10 -14 12 -14 5z"/>
<path d="M10319 486 c-19 -31 -37 -56 -40 -56 -3 0 -16 23 -29 50 -13 28 -29
50 -37 50 -7 0 -13 -4 -13 -9 0 -8 67 -140 75 -150 2 -1 22 34 45 79 23 45 39
84 37 87 -3 2 -20 -21 -38 -51z"/>
<path d="M9807 519 c-32 -19 -46 -60 -33 -99 14 -45 55 -66 105 -54 32 8 36
13 39 47 3 36 3 37 -32 37 -25 0 -36 -4 -36 -15 0 -9 9 -15 21 -15 29 0 18
-24 -13 -28 -32 -4 -58 21 -58 57 0 39 22 55 65 48 25 -4 35 -2 35 8 0 24 -59
34 -93 14z"/>
<path d="M9942 448 l3 -83 49 0 c60 0 76 22 19 27 -49 4 -53 32 -5 36 19 2 32
9 32 17 0 8 -13 15 -32 17 -48 4 -44 32 5 36 24 2 37 8 37 18 0 10 -14 14 -55
14 l-56 0 3 -82z"/>
<path d="M10070 515 c0 -9 9 -15 25 -15 24 0 25 -2 25 -71 0 -52 3 -70 13 -67
7 3 13 29 15 71 3 60 5 67 23 67 12 0 19 5 17 13 -3 7 -27 13 -61 15 -46 2
-57 0 -57 -13z"/>
<path d="M10384 506 c-21 -18 -28 -32 -28 -61 0 -29 7 -43 28 -61 15 -13 33
-24 41 -24 58 0 101 59 83 112 -21 58 -78 74 -124 34z m84 -18 c7 -7 12 -26
12 -43 0 -36 -15 -55 -46 -55 -27 0 -46 23 -46 55 0 47 49 74 80 43z"/>
<path d="M10540 515 c0 -8 7 -15 15 -15 8 0 15 7 15 15 0 8 -7 15 -15 15 -8 0
-15 -7 -15 -15z"/>
<path d="M10600 450 c0 -64 3 -80 15 -80 8 0 15 4 15 10 0 5 20 19 45 31 38
18 45 26 45 49 0 37 -41 70 -86 70 l-34 0 0 -80z m84 28 c13 -22 -14 -54 -38
-45 -16 6 -22 48 -9 61 11 11 35 3 47 -16z"/>
<path d="M10553 483 c-16 -6 -18 -109 -3 -118 15 -9 22 16 18 72 -2 34 -7 48
-15 46z"/>
</g>
</svg>
